# xmcd
#
# Track frame offsets:
#	150
#	14662
#	28912
#	40625
#	54825
#	67425
#	78712
#	90562
#	103125
#	120112
#	132750
#	149700
#	159300
#	170737
#	179100
#	191750
#
# Disc length: 2720
#
# Revision: 5
# Processed by: cddbd v1.5.1PL0 Copyright (c) Steve Scherf et al.
# Submitted via: xmcd 2.6 PL0
# Normalized: r3:TSWAP
#
DISCID=e90a9e10
DTITLE=Various Artist - Country and Western Classics Vol 1 CD 1
DYEAR=1900
DGENRE=
TTITLE0=Bellamy Brothers - If I Said You Have A Beautiful Body...
TTITLE1=Dean Martin - Green, Green Gras Of Home
TTITLE2=Tammy Wynette - I Don't Wanna Play House
TTITLE3=Johnny Horton - Comanche (The Brave Horse)
TTITLE4=Billie Jo Spears - You've Got The Power
TTITLE5=Don Gibson - Oh Lonesome Me
TTITLE6=Roger Miller - Little Green Apples
TTITLE7=Leroy van Dyke - The Auctioneer
TTITLE8=Roy Drusky - The Farewell
TTITLE9=Nancy Sinatra and Lee Hazlewood - Jackson
TTITLE10=Ferlin Husky - For The Good Times
TTITLE11=Warner Mac - Sittin On A Rock
TTITLE12=Kenny Rogers - Poem For My Little Lady
TTITLE13=Bob Luman - Let's Think About Living
TTITLE14=Patti Page - Gentle On My Mind
TTITLE15=Claude King - Wolverton Mountain
EXTD=
EXTT0=
EXTT1=
EXTT2=
EXTT3=
EXTT4=
EXTT5=
EXTT6=
EXTT7=
EXTT8=
EXTT9=
EXTT10=
EXTT11=
EXTT12=
EXTT13=
EXTT14=
EXTT15=
PLAYORDER=
